<?xml version="1.0" encoding="UTF-8"?>
<svg id="Camada_2" data-name="Camada 2" xmlns="http://www.w3.org/2000/svg" viewBox="0 0 553.97 114.12">
  <defs>
    <style>
      .cls-1 {
        fill: #c8f55a;
      }
    </style>
  </defs>
  <g id="Camada_2-2" data-name="Camada 2">
    <g id="Camada_2-2" data-name="Camada 2-2">
      <g>
        <g>
          <path class="cls-1" d="M213.69,55.56c3.57-5.42,4.2-12.33,1.63-18.3-2.59-6-8.02-10.07-14.52-10.89h-51.26v61.71h20.47l6.08-11.36h-14.33v-15.19h7.88s.06.07.09.1c.93,1.03,3.1,3.41,6.92,2.85,2.57-.37,4.54-1.97,5.4-4.38.95-2.71.34-5.88-1.55-7.89-1.78-1.91-4.39-2.53-7.35-1.74-1.81.48-2.67,1.73-3.09,2.44h-8.3v-15.2h36.95c1.79,0,3.23.72,4.28,2.12.94,1.27,1.47,3.08,1.47,4.96,0,3.34-1.67,6.94-5.36,6.94h-2.28l-6.4,11.36h13.4c2.98,0,4.59,3.48,4.59,6.76,0,1.87-.49,3.59-1.37,4.83-.96,1.35-2.31,2.04-4.01,2.04h-17.83l-6.95,11.36h26.75c1.31,0,5.42-1.69,6.28-2.13,5.66-2.89,9.32-8.82,9.57-15.49.22-6.12-2.44-11.61-7.16-14.9Z"/>
          <polygon class="cls-1" points="372.7 67.53 338.59 26.36 326.3 26.36 326.3 88.08 338.92 88.08 338.92 46.94 372.44 88.08 385.32 88.08 385.32 26.36 372.7 26.36 372.7 67.53"/>
          <path class="cls-1" d="M540.24,68.24c8.72-3.64,13.59-12.29,12.47-22.4-.97-8.71-7.03-18.11-18.41-19.47-6.18-.74-13.19-.41-19.97-.09-6.09.29-12.39.58-18,.09l-1.09-.1v11.45h36.98c6.1,0,8.83,5.15,8.83,10.25,0,2.71-.78,5.36-2.14,7.26-1.03,1.44-2.88,3.15-5.9,3.15h-37.77v29.7h12.22v-17.97l18.15-.17,13.57,18.14h14.79l-13.73-19.84h0Z"/>
          <g>
            <path class="cls-1" d="M257.08,63.85c0,2.79.87,5.26,2.56,7.28l-4.9,11.95c-5.83-3.78-9.88-9.73-9.88-18.05V26.36h12.22s0,37.49,0,37.49Z"/>
            <path class="cls-1" d="M302.3,26.36v38.27c0,16.2-14.95,23.57-28.85,23.57-4.57,0-9.25-.8-13.46-2.45l4.66-10.92c2.59,1.19,5.66,1.83,8.9,1.83,7.96,0,16.53-4.01,16.53-12.81V26.36h12.22Z"/>
          </g>
          <g>
            <polygon class="cls-1" points="471.2 26.36 454.14 26.36 425.18 57.21 454.14 88.08 471.24 88.08 442.42 57.54 471.2 26.36"/>
            <rect class="cls-1" x="409.32" y="26.36" width="12.22" height="61.72"/>
          </g>
        </g>
        <path class="cls-1" d="M51.74,0c2.53-.06,45.77,11.98,48.74,13.49.69.35,1.55.42,2.08,1.08,1.66,2.27.68,50.36-.34,56.01-4.36,24.22-29.25,35.93-50.02,43.54-17.99-6.44-40.86-16.7-48.12-35.82C-.09,67.29-.79,29.95.75,17.76c.15-1.22.06-2.45.99-3.44L51.74,0ZM78.5,42.75v47.39c23.17-14.91,13-45.82,15.08-68.78l-41.9-11.48L10.57,21.89c1.27,22.79-7.47,52.88,14.54,68.24l.92-47.09,25.63-10.46,26.84,10.16h0ZM59.54,85.08l-3.6-18.04c16.98-16.38-17.24-23.88-11.9-4.68.58,2.07,3.83,4.29,3.92,4.67.58,2.58-3.98,14.33-3.58,18.05h15.16Z"/>
      </g>
    </g>
  </g>
</svg>